<?xml version="1.0"?>
<svg xmlns="http://www.w3.org/2000/svg" xmlns:xlink="http://www.w3.org/1999/xlink" version="1.1" id="Capa_1" x="0px" y="0px" viewBox="0 0 512 512" style="enable-background:new 0 0 512 512;" xml:space="preserve" width="25px" height="25px"><g><g>
	<g>
		<path d="M502,92.5H340V78.837c0-18.382-14.955-33.337-33.337-33.337H192.338C173.955,45.5,159,60.455,159,78.837V92.5H10    c-5.522,0-10,4.477-10,10v107.503c0,3.487,1.817,6.723,4.795,8.538c4.272,2.604,8.326,5.115,12.205,7.546V456.5    c0,5.523,4.478,10,10,10h228c0.169,0,0.333-0.017,0.5-0.025c0.167,0.008,0.331,0.025,0.5,0.025h228c5.522,0,10-4.477,10-10    V226.713c4.178-2.624,8.567-5.345,13.205-8.172c2.977-1.815,4.795-5.051,4.795-8.538V102.5C512,96.977,507.522,92.5,502,92.5z     M179,78.837c0-7.354,5.983-13.337,13.338-13.337h114.325c7.354,0,13.337,5.983,13.337,13.337V92.5H179V78.837z M256,446.5    c-0.169,0-0.333,0.017-0.5,0.025c-0.167-0.008-0.331-0.025-0.5-0.025H37V238.881c4.757,3.098,9.245,6.053,13.536,8.878    c48.543,31.962,67.877,44.682,147.022,45.607c4.093,14.485,17.42,25.134,33.197,25.134h49.489    c15.773,0,29.097-10.643,33.194-25.122c79.991-0.828,99.276-13.52,148.019-45.615c3.992-2.629,8.151-5.367,12.542-8.231V446.5H256    z M216.749,280.311c1.638-6.211,7.288-10.811,14.006-10.811h49.489c7.995,0,14.5,6.504,14.5,14.5c0,7.996-6.505,14.5-14.5,14.5    h-49.489c-6.962,0-12.79-4.934-14.181-11.487c0.43-1.115,0.675-2.322,0.675-3.589C217.25,282.336,217.071,281.291,216.749,280.311    z M492,204.402c-16.464,10.145-29.722,18.874-41.541,26.657c-47.689,31.401-63.258,41.645-137.392,42.326    c-4.489-13.844-17.502-23.885-32.822-23.885h-49.489c-15.317,0-28.327,10.036-32.819,23.875    c-73.275-0.763-88.924-11.057-136.402-42.319C49.718,223.274,36.459,214.545,20,204.403V112.5h149h161h162V204.402z" data-original="#000000" class="active-path" data-old_color="#000000" fill="#515151"/>
	</g>
</g><g>
	<g>
		<path d="M466,127.5h-41c-5.522,0-10,4.477-10,10s4.478,10,10,10h41c5.522,0,10-4.477,10-10S471.522,127.5,466,127.5z" data-original="#000000" class="active-path" data-old_color="#000000" fill="#515151"/>
	</g>
</g><g>
	<g>
		<circle cx="396.5" cy="137" r="10" data-original="#000000" class="active-path" data-old_color="#000000" fill="#515151"/>
	</g>
</g></g> </svg>
