<?xml version="1.0"?>
<svg xmlns="http://www.w3.org/2000/svg" id="Capa_1" enable-background="new 0 0 511.684 511.684" height="48px" viewBox="0 0 511.684 511.684" width="48px"><g><g><path d="m502.843 390.953c11.788-108.664 11.788-218.858 0-327.522-2.559-23.585-21.517-42.052-45.079-43.91-133.986-10.556-269.859-10.556-403.846 0-23.561 1.858-42.52 20.325-45.078 43.91-11.788 108.664-11.788 218.858 0 327.522 2.559 23.585 21.517 42.052 45.079 43.91 67.042 5.282 134.655 7.928 202.149 7.928 42.385 0 84.722-1.053 126.838-3.142 28.572 35.941 50.056 57.54 50.345 57.83.895.895 2.001 1.548 3.216 1.9.608.176 2.697.701 5.972.701 7.631 0 21.699-2.852 38.458-19.61 23.956-23.945 19.488-42.401 18.9-44.426-.353-1.214-1.006-2.318-1.899-3.212-.33-.33-4.156-4.142-11.083-10.525 8.889-8.062 14.71-19.233 16.028-31.354zm-27.243 21.245c-6.956-6.144-15.43-13.411-25.298-21.479-3.207-2.623-7.932-2.148-10.553 1.059-2.622 3.207-2.148 7.932 1.059 10.553 11.793 9.642 21.634 18.193 29.182 24.967.01.009.021.018.031.028 7.629 6.847 12.911 11.874 15.481 14.362.096 3.884-1.235 14.206-15.21 28.174-13.974 13.973-24.296 15.298-28.184 15.218-7.712-7.976-39.807-42.019-75.46-91.885 10.101-7.792 19.168-16.859 26.962-26.958 7.972 5.697 15.989 11.614 23.913 17.668 1.359 1.038 2.96 1.541 4.548 1.541 2.257 0 4.489-1.015 5.965-2.947 2.515-3.292 1.885-7.999-1.407-10.513-8.106-6.193-16.309-12.245-24.466-18.072 14.058-22.616 22.192-49.281 22.192-77.813 0-81.514-66.316-147.831-147.831-147.831s-147.831 66.316-147.831 147.83 66.316 147.831 147.831 147.831c28.525 0 55.184-8.13 77.796-22.181 5.889 8.24 11.685 16.058 17.299 23.41-105.12 4.773-211.526 3.022-316.521-5.25-16.38-1.292-29.562-14.15-31.345-30.575-9.172-84.557-11.132-170.049-5.887-255.006 23.144-1.99 46.622-3.729 69.914-5.151 4.134-.252 7.281-3.808 7.029-7.943-.252-4.134-3.791-7.288-7.943-7.029-22.644 1.382-45.461 3.065-67.985 4.983 1.3-18.08 2.918-36.132 4.872-54.141 1.782-16.424 14.965-29.283 31.344-30.575 133.205-10.494 268.285-10.494 401.489 0 16.38 1.292 29.563 14.15 31.345 30.575 1.953 18 3.571 36.044 4.87 54.115-124.769-10.6-251.193-12.842-375.927-6.612-4.137.207-7.323 3.728-7.117 7.865.207 4.137 3.72 7.317 7.865 7.117 124.825-6.234 251.353-3.943 376.194 6.768 5.247 84.966 3.288 170.467-5.885 255.031-.975 8.971-5.483 17.194-12.331 22.866zm-199.076-3.267c-73.243 0-132.831-59.587-132.831-132.831s59.588-132.83 132.831-132.83 132.83 59.587 132.83 132.83-59.587 132.831-132.83 132.831z" data-original="#000000" class="active-path" data-old_color="#000000" fill="#519FFF"/><path d="m70.711 41.2c-17.063 0-30.946 13.882-30.946 30.945s13.882 30.946 30.946 30.946 30.946-13.882 30.946-30.946-13.883-30.945-30.946-30.945zm0 46.891c-8.792 0-15.946-7.153-15.946-15.946s7.153-15.945 15.946-15.945 15.946 7.153 15.946 15.945-7.154 15.946-15.946 15.946z" data-original="#000000" class="active-path" data-old_color="#000000" fill="#519FFF"/><path d="m211.385 103.091c17.063 0 30.946-13.882 30.946-30.946s-13.882-30.945-30.946-30.945-30.946 13.882-30.946 30.945 13.883 30.946 30.946 30.946zm0-46.891c8.792 0 15.946 7.153 15.946 15.945s-7.153 15.946-15.946 15.946-15.946-7.153-15.946-15.946 7.154-15.945 15.946-15.945z" data-original="#000000" class="active-path" data-old_color="#000000" fill="#519FFF"/><path d="m141.048 103.091c17.063 0 30.946-13.882 30.946-30.946s-13.883-30.945-30.946-30.945-30.945 13.882-30.945 30.945 13.881 30.946 30.945 30.946zm0-46.891c8.792 0 15.946 7.153 15.946 15.945s-7.153 15.946-15.946 15.946-15.945-7.153-15.945-15.946 7.152-15.945 15.945-15.945z" data-original="#000000" class="active-path" data-old_color="#000000" fill="#519FFF"/><path d="m276.524 158.201c-65.01 0-117.899 52.889-117.899 117.899s52.889 117.899 117.899 117.899 117.899-52.889 117.899-117.899-52.889-117.899-117.899-117.899zm0 220.798c-56.739 0-102.899-46.16-102.899-102.899s46.16-102.899 102.899-102.899 102.899 46.16 102.899 102.899-46.16 102.899-102.899 102.899z" data-original="#000000" class="active-path" data-old_color="#000000" fill="#519FFF"/><path d="m213.538 229.769c-4.142 0-7.5 3.358-7.5 7.5v52.266c0 2.14-1.099 4.08-2.867 5.062-3.335 1.85-7.143-1.672-7.402-1.918-2.924-2.886-7.634-2.883-10.554.019-2.938 2.919-2.953 7.668-.033 10.606 3.064 3.084 8.996 6.891 15.919 6.891 2.983 0 6.15-.707 9.351-2.484 6.53-3.625 10.587-10.59 10.587-18.176v-52.266c-.001-4.142-3.358-7.5-7.501-7.5z" data-original="#000000" class="active-path" data-old_color="#000000" fill="#519FFF"/><path d="m360.205 265.073c2.501-3.631 3.969-8.024 3.969-12.756 0-12.433-10.115-22.547-22.547-22.547h-18.996c-4.142 0-7.5 3.358-7.5 7.5v65.395c0 1.995.795 3.908 2.208 5.315 1.406 1.4 3.309 2.185 5.292 2.185h.033c.001 0 17.466-.078 22.28-.078 13.841 0 25.102-11.261 25.102-25.102 0-8.105-3.864-15.32-9.841-19.912zm-18.579-20.304c4.162 0 7.547 3.386 7.547 7.547s-3.386 7.547-7.547 7.547c-1.393 0-4.013.008-6.871.018h-4.624v-15.112zm3.318 50.317c-2.715 0-9.444.024-14.813.046v-20.233c1.517-.006 3.114-.012 4.645-.018h10.168c5.57 0 10.102 4.532 10.102 10.103 0 5.57-4.532 10.102-10.102 10.102z" data-original="#000000" class="active-path" data-old_color="#000000" fill="#519FFF"/><path d="m269.436 229.769c-22.165 0-40.197 18.032-40.197 40.197s18.032 40.197 40.197 40.197 40.197-18.032 40.197-40.197-18.032-40.197-40.197-40.197zm0 65.395c-13.894 0-25.197-11.303-25.197-25.197s11.303-25.197 25.197-25.197 25.197 11.303 25.197 25.197-11.303 25.197-25.197 25.197z" data-original="#000000" class="active-path" data-old_color="#000000" fill="#519FFF"/></g></g> </svg>
