<?xml version="1.0"?>
<svg xmlns="http://www.w3.org/2000/svg" height="40px" viewBox="-94 1 511 511.999" width="40px" class=""><g><path d="m280.125 146.863281v-72.308593h5.859375c10.265625 0 18.613281-8.351563 18.613281-18.613282v-5.90625h2.582032c9.460937 0 17.15625-7.695312 17.15625-17.15625v-15.726562c0-9.457032-7.695313-17.152344-17.15625-17.152344h-228.671876c-4.144531 0-7.5 3.355469-7.5 7.5s3.355469 7.5 7.5 7.5h228.671876c1.191406 0 2.15625.96875 2.15625 2.152344v15.726562c0 1.1875-.96875 2.15625-2.15625 2.15625h-289.527344c-1.1875 0-2.152344-.96875-2.152344-2.15625v-15.726562c0-1.1875.964844-2.152344 2.152344-2.152344h26.675781c4.144531 0 7.5-3.355469 7.5-7.5s-3.355469-7.5-7.5-7.5h-26.675781c-9.457032 0-17.152344 7.695312-17.152344 17.152344v15.726562c0 9.460938 7.695312 17.15625 17.152344 17.15625h2.582031v5.90625c0 10.261719 8.351563 18.613282 18.613281 18.613282h5.859375v72.308593c0 50.363281 31.800781 93.433594 76.371094 110.207031-44.570313 16.773438-76.371094 59.84375-76.371094 110.207032v70.167968h-5.859375c-10.261718 0-18.613281 8.351563-18.613281 18.613282v5.90625h-2.582031c-9.457032 0-17.152344 7.695312-17.152344 17.152344v15.726562c0 9.460938 7.695312 17.15625 17.152344 17.15625h89.675781c4.144531 0 7.5-3.359375 7.5-7.5 0-4.144531-3.355469-7.5-7.5-7.5h-89.675781c-1.1875 0-2.152344-.96875-2.152344-2.15625v-15.726562c0-1.1875.964844-2.152344 2.152344-2.152344h289.527344c1.1875 0 2.15625.964844 2.15625 2.152344v15.726562c0 1.1875-.96875 2.15625-2.15625 2.15625h-165.671876c-4.144531 0-7.5 3.355469-7.5 7.5 0 4.140625 3.355469 7.5 7.5 7.5h165.671876c9.460937 0 17.15625-7.695312 17.15625-17.15625v-15.726562c0-9.457032-7.695313-17.152344-17.15625-17.152344h-2.578126v-5.90625c0-10.265625-8.351562-18.613282-18.617187-18.613282h-5.859375v-70.167968c0-22.265625-6.253906-43.953125-18.089844-62.714844-2.210937-3.503906-6.839844-4.550781-10.34375-2.339844-3.503906 2.210938-4.554687 6.839844-2.34375 10.34375 10.320313 16.363282 15.777344 35.28125 15.777344 54.710938v29.183594c-25.867188-29.234376-63.019531-46.226563-102.707031-46.226563-39.660157 0-76.835938 17-102.707031 46.230469v-29.1875c0-54.109375 42.0625-98.578125 95.207031-102.429688v34.707032c0 4.144531 3.355469 7.5 7.5 7.5 4.140625 0 7.5-3.355469 7.5-7.5v-34.6875c21.40625 1.574218 41.914062 9.820312 58.425781 23.660156 3.175781 2.660156 7.90625 2.246094 10.566406-.929688 2.660156-3.175781 2.242188-7.90625-.933594-10.566406-10.253906-8.597656-21.859374-15.3125-34.242187-19.953125 44.582031-16.765625 76.390625-59.84375 76.390625-110.214844zm9.476562 309.195313v5.90625h-254.367187v-5.90625c0-1.992188 1.621094-3.613282 3.613281-3.613282h247.136719c1.992187 0 3.617187 1.621094 3.617187 3.613282zm-229.085937-36.109375c22.742187-34.261719 60.835937-54.714844 101.902344-54.714844 41.230469 0 79.40625 20.578125 102.121093 55.050781.183594.273438.378907.53125.585938.773438v16.386718h-205.414062v-16.492187c.289062-.308594.5625-.640625.804687-1.003906zm-25.28125-364.007813v-5.90625h254.363281v5.90625c0 1.992188-1.621094 3.613282-3.613281 3.613282h-247.132813c-1.996093 0-3.617187-1.621094-3.617187-3.613282zm24.476563 18.613282h205.414062v72.308593c0 14.566407-3.050781 28.425781-8.542969 40.988281-25.542969-24.1875-58.667969-37.421874-94.164062-37.421874-35.496094 0-68.625 13.230468-94.167969 37.421874-5.488281-12.5625-8.539062-26.425781-8.539062-40.988281zm102.707031 175.015624c-36.503907 0-68.621094-19.144531-86.839844-47.921874 23.125-23.382813 53.835937-36.21875 86.839844-36.21875 33.003906 0 63.714843 12.839843 86.835937 36.21875-18.21875 28.777343-50.332031 47.921874-86.835937 47.921874zm0 0" data-original="#000000" class="active-path" data-old_color="#000000" fill="#01BBBC"/><path d="m130.78125 286.105469v25.101562c0 4.144531 3.355469 7.5 7.5 7.5 4.140625 0 7.5-3.355469 7.5-7.5v-25.101562c0-4.144531-3.359375-7.5-7.5-7.5-4.144531 0-7.5 3.355469-7.5 7.5zm0 0" data-original="#000000" class="active-path" data-old_color="#000000" fill="#01BBBC"/><path d="m179.054688 284.175781v51.167969c0 4.140625 3.355468 7.5 7.5 7.5 4.144531 0 7.5-3.359375 7.5-7.5v-51.167969c0-4.144531-3.355469-7.5-7.5-7.5-4.144532 0-7.5 3.355469-7.5 7.5zm0 0" data-original="#000000" class="active-path" data-old_color="#000000" fill="#01BBBC"/><path d="m193.308594 402.238281h.109375c4.140625 0 7.5-3.355469 7.5-7.5 0-4.140625-3.359375-7.5-7.5-7.5h-.109375c-4.144532 0-7.5 3.359375-7.5 7.5 0 4.144531 3.355468 7.5 7.5 7.5zm0 0" data-original="#000000" class="active-path" data-old_color="#000000" fill="#01BBBC"/><path d="m90.992188 430.335938.105468.003906h.070313c4.109375 0 7.460937-3.316406 7.5-7.433594.035156-4.144531-3.292969-7.53125-7.433594-7.566406l-.109375-.003906c-.023438 0-.046875 0-.070312 0-4.109376 0-7.460938 3.316406-7.496094 7.433593-.035156 4.140625 3.289062 7.53125 7.433594 7.566407zm0 0" data-original="#000000" class="active-path" data-old_color="#000000" fill="#01BBBC"/><path d="m210.152344 414.039062h.109375.066406c4.109375 0 7.460937-3.3125 7.5-7.433593.035156-4.140625-3.292969-7.527344-7.4375-7.566407h-.109375c-.019531 0-.042969 0-.066406 0-4.109375 0-7.460938 3.316407-7.5 7.433594-.035156 4.140625 3.292968 7.53125 7.4375 7.566406zm0 0" data-original="#000000" class="active-path" data-old_color="#000000" fill="#01BBBC"/><path d="m114.484375 199.496094-.109375-.003906c-.023438 0-.046875 0-.066406 0-4.113282 0-7.464844 3.316406-7.5 7.433593-.035156 4.144531 3.289062 7.53125 7.433594 7.566407l.109374.003906h.066407c4.113281 0 7.460937-3.316406 7.5-7.433594.035156-4.140625-3.292969-7.53125-7.433594-7.566406zm0 0" data-original="#000000" class="active-path" data-old_color="#000000" fill="#01BBBC"/><path d="m133.484375 212.101562h-.109375c-.023438 0-.046875 0-.066406 0-4.113282 0-7.464844 3.3125-7.5 7.429688-.035156 4.144531 3.289062 7.53125 7.433594 7.570312h.109374.066407c4.113281 0 7.460937-3.316406 7.5-7.433593.035156-4.144531-3.292969-7.53125-7.433594-7.566407zm0 0" data-original="#000000" class="active-path" data-old_color="#000000" fill="#01BBBC"/></g> </svg>
